inDegrees=no
num_controls=7
num_derivatives=13
num_iterations=90
num_multipliers=7
num_parameters=0
num_slacks=7
num_states=26
objective=0.430244
objective_accelerations=0.052956
objective_balance=0.001237
objective_effort=0.013274
objective_height=0.356521
objective_ligament=0.006256
solver_duration=1374.090212
status=Solve_Succeeded
success=true
DataType=double
version=3
OpenSimVersion=4.5
endheader
time	/jointset/ground_pelvis/pelvis_tilt/value	/jointset/ground_pelvis/pelvis_tx/value	/jointset/ground_pelvis/pelvis_ty/value	/jointset/hip_l/hip_flexion_l/value	/jointset/hip_l/hip_adduction_l/value	/jointset/hip_l/hip_rotation_l/value	/jointset/back/lumbar_extension/value	/jointset/patellofemoral_l/patellar_flexion_l/value	/jointset/knee_l/knee_flexion_l/value	/jointset/knee_l/knee_adduction_l/value	/jointset/knee_l/knee_rotation_l/value	/jointset/ankle_l/ankle_angle_l/value	/jointset/subtalar_l/subtalar_angle_l/value	/jointset/ground_pelvis/pelvis_tilt/speed	/jointset/ground_pelvis/pelvis_tx/speed	/jointset/ground_pelvis/pelvis_ty/speed	/jointset/hip_l/hip_flexion_l/speed	/jointset/hip_l/hip_adduction_l/speed	/jointset/hip_l/hip_rotation_l/speed	/jointset/back/lumbar_extension/speed	/jointset/patellofemoral_l/patellar_flexion_l/speed	/jointset/knee_l/knee_flexion_l/speed	/jointset/knee_l/knee_adduction_l/speed	/jointset/knee_l/knee_rotation_l/speed	/jointset/ankle_l/ankle_angle_l/speed	/jointset/subtalar_l/subtalar_angle_l/speed	/forceset/tau_hip_flexion_l	/forceset/tau_hip_adduction_l	/forceset/tau_hip_rotation_l	/forceset/tau_knee_flexion_l	/forceset/tau_ankle_angle_l	/forceset/tau_subtalar_angle_l	/forceset/tau_lumbar_extension	lambda_cid13_p0	lambda_cid13_p1	lambda_cid13_p2	lambda_cid13_p3	lambda_cid13_p4	lambda_cid13_p5	lambda_cid14_p0	/jointset/ground_pelvis/pelvis_tilt/accel	/jointset/ground_pelvis/pelvis_tx/accel	/jointset/ground_pelvis/pelvis_ty/accel	/jointset/hip_l/hip_flexion_l/accel	/jointset/hip_l/hip_adduction_l/accel	/jointset/hip_l/hip_rotation_l/accel	/jointset/back/lumbar_extension/accel	/jointset/patellofemoral_l/patellar_flexion_l/accel	/jointset/knee_l/knee_flexion_l/accel	/jointset/knee_l/knee_adduction_l/accel	/jointset/knee_l/knee_rotation_l/accel	/jointset/ankle_l/ankle_angle_l/accel	/jointset/subtalar_l/subtalar_angle_l/accel	gamma_cid13_p0	gamma_cid13_p1	gamma_cid13_p2	gamma_cid13_p3	gamma_cid13_p4	gamma_cid13_p5	gamma_cid14_p0
0.5	-0.1728446365262815	0.04049201222371065	0.7869639071352292	0.8992206907984081	-0.365468449861256	-0.01499125748948554	-0.3965269573436077	0.9136625903502353	0.9136625903503014	-0.0423142285466268	-0.1745067064606496	0.3119074004894684	0.1601115663296151	-0.6360691718893654	-0.1544447504071434	-0.4636520804271503	2.145862571574874	0.02974991405356033	0.5134987297224887	-0.3169216016237782	1.882942390482236	1.882942390482341	0.2879907451161068	0.0002536990429562597	0.5305661350024437	0.2597389615096876	-0.08393044761840575	0.03474845959898728	0.000513264357026115	-0.2097039058593564	0.01267958428788433	0.008640753830320393	0.1044604074221174	-20.92349377063521	1.808324152915499	-2.736652389733204	-1.554125084844077	-441.9488415222414	-60.82260426324873	-6.491702620370815	0.1430036207444609	0.3603737519739046	-0.4241902249514824	-1.018046467760083	0.07834857513740216	-0.7017204699877798	1.291303887387637	-1.474019630326188	-1.474019630326199	-0.2524242609430048	0.006536277831281975	-0.7565179900279551	0.09034162551818457	-4.024747740950366e-07	-1.08755803138403e-06	5.086068154752235e-06	1.605966660311705e-07	-1.088383994008926e-06	-1.873647288915294e-06	-6.863634696003097e-07
0.51	-0.1791963282083464	0.03896585259770504	0.7823073465798721	0.9206237766653379	-0.365169488892219	-0.009887383501680983	-0.399632273725576	0.9324147389574494	0.9324147389574547	-0.03945484434442276	-0.174504480482858	0.3171736269956218	0.1627092943265372	-0.6341786418298884	-0.1507675573531437	-0.4675526604634518	2.134457991903062	0.03004266842781311	0.5072251968442785	-0.3041054061622739	1.867218921361401	1.867218921361519	0.2838896340073078	0.0001799511719813139	0.5226069528956676	0.2597664024409755	-0.08809367067891488	0.03603162728531491	-9.819683010492954e-05	-0.2117569183099721	0.01098102201382903	0.009311652126637831	0.1077049626668562	-21.59405161822229	1.734103635501122	-2.838748767715768	-1.372439221933689	-444.8350438075881	-60.89578971589826	-5.805709316808287	0.2256277081866286	0.3743687575485833	-0.3571017293984673	-1.24620374209702	0.004075923929492083	-0.5984776095020365	1.282217666684271	-1.661634692712818	-1.661634692710872	-0.4884767547526747	-0.01513634631148202	-0.8265007273551639	-0.04753764292985164	-3.90531508481899e-07	-8.334510036363442e-07	5.09450696146817e-06	1.926190834988938e-07	-1.055567629622976e-06	-1.614546871407385e-06	-6.724142879571119e-07
0.52	-0.1855264045878892	0.03747706023732651	0.777614958256866	0.9419039087305098	-0.3648677329683672	-0.004847906425211068	-0.4026083400946986	0.9510016280455077	0.9510016280454462	-0.03663637569710381	-0.1745031531891165	0.3223580851994367	0.1653060001387995	-0.6317461113849182	-0.1469712972817291	-0.4708176339569147	2.12127181122304	0.0303089050164753	0.5006193474554937	-0.2910715990546704	1.849890486650538	1.849890486650669	0.279807634142337	7.396223102206666e-05	0.5142124745347819	0.259534524577706	-0.09225689373941173	0.03731479497164922	-0.0007096580173263958	-0.2138099307605856	0.009282459739775546	0.009982550422966727	0.110949517911606	-22.25926646218659	1.649920380251907	-2.928943190648715	-1.232038527758188	-447.6525290280312	-61.07314215664748	-5.164297782043161	0.2514036978431189	0.3841871554568648	-0.2970689163837585	-1.37436666940183	0.0730450180192747	-0.7681837721026629	1.334826216607487	-1.795012748331874	-1.795012748331855	-0.248602012177377	8.80638344095513e-05	-0.8435772408499203	0.03847786660671097	-3.718908080323236e-07	-4.573449385096361e-07	5.066619202042082e-06	2.377194059307199e-07	-1.012633700180721e-06	-1.273661169215207e-06	-6.439538319277705e-07
0.53	-0.1918296541565281	0.03602679184643365	0.7728931218468349	0.9630436293513859	-0.3645632605338535	0.0001247124015641989	-0.4054530111921804	0.9694074627593535	0.9694074627593385	-0.03385894369943835	-0.1745024447423017	0.3274565926204561	0.1678993149948882	-0.6288200345826808	-0.1430651940701193	-0.4734379143462415	2.106381896262818	0.0305819369824899	0.4938594990763854	-0.2778440201114922	1.83101604705616	1.831016047056126	0.2756702618667349	5.412319011464698e-05	0.5054239741790956	0.2590820380536956	-0.09626228899828861	0.0383449729341118	-0.001217023146214479	-0.2162911174413398	0.007964071787107757	0.01048137663873023	0.1140597269918902	-22.82947837488186	1.649423853330561	-3.061712078298564	-1.122013612283228	-450.6282621701704	-61.18091401452308	-4.567154258031029	0.32575322410504	0.3964522096854514	-0.227945561257703	-1.589908024047764	0.003119143124461409	-0.6372328389576088	1.319513782709088	-1.972595123346002	-1.972595123370889	-0.4975567983048447	-0.004116866682680263	-0.9062605504939001	-0.09463457290712571	-3.525508870946306e-07	-1.360643409721772e-07	5.004117184435554e-06	2.740136279196807e-07	-9.655581458218405e-07	-9.553955698128894e-07	-6.16451202293962e-07
0.54	-0.1981011342466067	0.03461611054879134	0.7681483950407003	0.9840257299997177	-0.364256320408233	0.005028263250920306	-0.4081648484903228	0.9876167659655829	0.9876167659656154	-0.03112313581713768	-0.1745021540816222	0.3324652602144055	0.1704866004535365	-0.625392215672802	-0.1390538786316191	-0.4753957131775922	2.08974781671398	0.03080244323777949	0.4868057519715699	-0.2645048391868685	1.81058418512757	1.81058418512737	0.271482811069005	-9.594995966671281e-06	0.4962445091207729	0.2583286450895975	-0.1002676842571529	0.0393751508965812	-0.001724388275083076	-0.2187723041220917	0.006645683834441116	0.01098020285450346	0.1171699360721855	-23.39558017545087	1.640262291464293	-3.184021539171347	-1.051741339478412	-453.549895652003	-61.38743265652266	-4.013651202067183	0.3517521193714119	0.4052296008349617	-0.1645726047885351	-1.723199587125081	0.06253987587427302	-0.8269635172440868	1.357146612896593	-2.106497215174394	-2.106497215174365	-0.2586177166029232	-0.008687765200375902	-0.9217701813771746	-0.02170342141082614	-3.324373605105096e-07	1.24558292423984e-07	4.90331854075705e-06	3.005649302697263e-07	-9.139003681509484e-07	-6.621564671142482e-07	-5.900082954807433e-07
